<svg xmlns="http://www.w3.org/2000/svg" width="18.452" height="21.002" viewBox="0 0 18.452 21.002">
  <path id="Brand_Logos" data-name="Brand Logos" d="M20.115,5.9a3.882,3.882,0,0,0-.26-.31,4.413,4.413,0,0,0,.21-.76,5.284,5.284,0,0,0-.35-2.8s-1.12-.35-3.69,1.38a12.477,12.477,0,0,0-3.35-.45,12.6,12.6,0,0,0-3.36.45c-2.57-1.75-3.69-1.38-3.69-1.38a5.263,5.263,0,0,0-.35,2.77,4.21,4.21,0,0,0,.22.79c-.09.1-.18.21-.26.31a5.14,5.14,0,0,0-1.12,3.3,7.686,7.686,0,0,0,.04.85c.32,4.43,3.27,5.46,6.08,5.78a2.558,2.558,0,0,0-.77,1.39,4.022,4.022,0,0,0-.13,1.09v1.31c-1.118.1-2.266-.063-2.622-1.061a5.7,5.7,0,0,0-1.834-2.412,1.179,1.179,0,0,1-.169-.112,1,1,0,0,0-.931-.646h0a1,1,0,0,0-1,1c0,.812.809,1.337,1.143,1.516a4.467,4.467,0,0,1,.923,1.358c.364,1.023,1.429,2.578,4.466,2.376,0,.035,0,.068,0,.1l0,.268a1,1,0,0,0,1,1h4.714a1,1,0,0,0,1-1s.007-3.16.007-3.69a4.024,4.024,0,0,0-.13-1.09l0-.006,0,.006c-.009-.035-.022-.064-.031-.1a2.532,2.532,0,0,0-.74-1.293l.012.021c-.007-.006-.013-.015-.02-.021,2.81-.32,5.74-1.37,6.06-5.78a7.687,7.687,0,0,0,.04-.85,5.231,5.231,0,0,0-1.11-3.3Z" transform="translate(-2.774 -1.999)" fill="#6563ff"/>
</svg>
